<svg width="1154" height="622" viewBox="0 0 1154 622" fill="none" xmlns="http://www.w3.org/2000/svg">
<rect width="1154" height="622" fill="black"/>
<path d="M17.6683 184.203L126.201 397.969V595.817H17.6683V184.203Z" fill="white"/>
<path d="M432.099 50.0304L432.099 216.04L293.682 361.762L243.511 262.288L432.099 50.0304Z" fill="white"/>
<rect width="108.663" height="428.437" rx="50" transform="matrix(0.889247 -0.457427 0.453286 0.891365 0 81.1738)" fill="white"/>
<path d="M347.79 147.817L456.323 22.7411V545.817C456.323 573.431 433.937 595.817 406.323 595.817H397.79C370.175 595.817 347.79 573.431 347.79 545.817V147.817Z" fill="white"/>
<path d="M816.555 22.7411H1060.75L1142.15 140.995H893.433L816.555 22.7411Z" fill="white"/>
<path d="M708.022 477.563H959.005L1033.62 595.817H789.422L708.022 477.563Z" fill="white"/>
<rect width="111.024" height="664.2" rx="50" transform="matrix(0.800771 -0.59897 0.548204 0.836345 698.978 66.5002)" fill="white"/>
</svg>
